<svg width="39" height="39" viewBox="0 0 39 39" fill="none" xmlns="http://www.w3.org/2000/svg">
<path d="M13.562 3.89155V8.65486M26.2641 3.89155V8.65486M6.41699 15.1489H33.4091M31.3609 25.7552L25.7402 31.3759C25.5179 31.5982 25.3115 32.011 25.2638 32.3127L24.9622 34.4562C24.851 35.2342 25.3909 35.774 26.1689 35.6629L28.3124 35.3612C28.614 35.3136 29.0427 35.1071 29.2492 34.8849L34.8699 29.2641C35.8384 28.2956 36.2989 27.1683 34.8699 25.7393C33.4568 24.3262 32.3294 24.7866 31.3609 25.7552Z" stroke="black" stroke-width="1.5" stroke-miterlimit="10" stroke-linecap="round" stroke-linejoin="round"/>
<path d="M30.5511 26.5649C31.0274 28.2797 32.3611 29.6135 34.0759 30.0898M19.913 35.647H13.5619C8.00471 35.647 5.62305 32.4714 5.62305 27.7081V14.2121C5.62305 9.44875 8.00471 6.2732 13.5619 6.2732H26.2641C31.8213 6.2732 34.2029 9.44875 34.2029 14.2121V19.7693" stroke="black" stroke-width="1.5" stroke-miterlimit="10" stroke-linecap="round" stroke-linejoin="round"/>
<path d="M19.9052 22.4685H19.921M14.0288 22.4685H14.0447M14.0288 27.2318H14.0447" stroke="black" stroke-width="2" stroke-linecap="round" stroke-linejoin="round"/>
</svg>
