<svg width="57" height="56" viewBox="0 0 57 56" fill="none" xmlns="http://www.w3.org/2000/svg">
<g clip-path="url(#clip0_222_1727)">
<path d="M18.2979 3.60834H21.8019V11.4516H18.2979V3.60834Z" fill="#D4E1F4"/>
<path d="M41.6576 49.3839H14.7936V11.4516H11.2896V51.6828H46.3296V49.3839H41.6576Z" fill="#D4E1F4"/>
<path d="M53.9219 42.7035C52.8917 42.7035 51.9372 42.1692 51.4111 41.2977C50.8851 40.4261 50.8645 39.3458 51.3573 38.4554C50.2641 39.0418 49.6687 40.2461 49.8749 41.4544C50.0812 42.6627 51.0434 43.6096 52.2712 43.8126C53.4989 44.0155 54.7226 43.4296 55.3185 42.3537C54.89 42.5841 54.4101 42.7044 53.9219 42.7035Z" fill="#D4E1F4"/>
<path d="M6.03369 42.7035C5.00348 42.7035 4.049 42.1692 3.52295 41.2977C2.99689 40.4261 2.97636 39.3458 3.46911 38.4554C2.37593 39.0418 1.78052 40.2461 1.98675 41.4544C2.19298 42.6627 3.15521 43.6096 4.38298 43.8126C5.61075 44.0155 6.83442 43.4296 7.43028 42.3537C7.00186 42.5841 6.52188 42.7044 6.03369 42.7035Z" fill="#D4E1F4"/>
<path d="M52.7538 52.7039C52.1735 52.7039 51.7026 52.2405 51.7026 51.6693V44.0829C51.7026 43.5113 52.1735 43.0484 52.7538 43.0484C53.3342 43.0484 53.805 43.5113 53.805 44.0829V51.6693C53.805 52.2405 53.3342 52.7039 52.7538 52.7039Z" fill="#1AE5BE"/>
<path d="M4.86565 52.7039C4.2853 52.7039 3.81445 52.2405 3.81445 51.6693V44.0829C3.81445 43.5113 4.2853 43.0484 4.86565 43.0484C5.44601 43.0484 5.91686 43.5113 5.91686 44.0829V51.6693C5.91686 52.2405 5.44601 52.7039 4.86565 52.7039Z" fill="#1AE5BE"/>
<path d="M39.7889 19.3829H17.8305C17.2501 19.3829 16.7793 18.9195 16.7793 18.3484C16.7793 17.7768 17.2501 17.3139 17.8305 17.3139H39.7889C40.3693 17.3139 40.8401 17.7768 40.8401 18.3484C40.8401 18.9195 40.3693 19.3829 39.7889 19.3829Z" fill="#1AE5BE"/>
<path d="M39.7889 26.2797H17.8305C17.2501 26.2797 16.7793 25.8163 16.7793 25.2452C16.7793 24.6736 17.2501 24.2107 17.8305 24.2107H39.7889C40.3693 24.2107 40.8401 24.6736 40.8401 25.2452C40.8401 25.8163 40.3693 26.2797 39.7889 26.2797Z" fill="#1AE5BE"/>
<path d="M39.7889 32.027H17.8305C17.2501 32.027 16.7793 31.5636 16.7793 30.9925C16.7793 30.4209 17.2501 29.9579 17.8305 29.9579H39.7889C40.3693 29.9579 40.8401 30.4209 40.8401 30.9925C40.8401 31.5636 40.3693 32.027 39.7889 32.027Z" fill="#1AE5BE"/>
<path d="M55.6738 50.6483H47.381V11.4516C47.381 10.88 46.9102 10.4171 46.3298 10.4171H40.373V3.60834C40.373 3.0372 39.9022 2.57382 39.3218 2.57382H18.2978C17.7174 2.57382 17.2466 3.0372 17.2466 3.60834V10.4171H11.2898C10.7094 10.4171 10.2385 10.88 10.2385 11.4516V50.6483H1.94573C1.36538 50.6483 0.894531 51.1112 0.894531 51.6828C0.894531 52.2539 1.36538 52.7173 1.94573 52.7173H55.6738C56.2542 52.7173 56.725 52.2539 56.725 51.6828C56.725 51.1112 56.2542 50.6483 55.6738 50.6483ZM19.349 4.64285H38.2706V10.4171H19.349V4.64285ZM12.341 12.4861H45.2786V50.6483H39.205V47.7975C39.205 47.2264 38.7342 46.763 38.1538 46.763H36.285V36.9158C36.285 36.3442 35.8141 35.8813 35.2338 35.8813H22.3858C21.8054 35.8813 21.3346 36.3442 21.3346 36.9158V46.763H19.4658C18.8854 46.763 18.4146 47.2259 18.4146 47.7975V50.6483H12.341V12.4861ZM34.1826 46.763H29.861V37.9503H34.1826V46.763ZM27.7586 46.763H23.437V37.9503H27.7586V46.763ZM37.1026 48.8321V50.6483H20.517V48.8321H37.1026Z" fill="#0635C9"/>
<path d="M52.7539 37.0712C50.5607 37.0712 48.7827 38.821 48.7827 40.9793C48.7827 43.1377 50.5607 44.8875 52.7539 44.8875C54.9471 44.8875 56.7251 43.1377 56.7251 40.9793C56.7228 38.8219 54.9462 37.0734 52.7539 37.0712ZM52.7539 42.8185C51.7219 42.8185 50.8851 41.995 50.8851 40.9793C50.8851 39.9637 51.7219 39.1402 52.7539 39.1402C53.786 39.1402 54.6227 39.9637 54.6227 40.9793C54.6214 41.9945 53.7855 42.8171 52.7539 42.8185Z" fill="#0635C9"/>
<path d="M4.86574 44.8875C7.05894 44.8875 8.83695 43.1377 8.83695 40.9793C8.83695 38.821 7.05894 37.0712 4.86574 37.0712C2.67254 37.0712 0.894531 38.821 0.894531 40.9793C0.896812 43.1368 2.67345 44.8853 4.86574 44.8875ZM4.86574 39.1402C5.89778 39.1402 6.73454 39.9637 6.73454 40.9793C6.73454 41.995 5.89778 42.8185 4.86574 42.8185C3.8337 42.8185 2.99694 41.995 2.99694 40.9793C2.9983 39.9641 3.83416 39.1415 4.86574 39.1402Z" fill="#0635C9"/>
</g>
<defs>
<clipPath id="clip0_222_1727">
<rect width="55.8305" height="54.9443" fill="white" transform="translate(0.894531 0.159943)"/>
</clipPath>
</defs>
</svg>
