<svg width="53" height="53" viewBox="0 0 53 53" fill="none" xmlns="http://www.w3.org/2000/svg">
<g clip-path="url(#clip0_222_1779)">
<path d="M5.24548 9.54651H43.3788C45.2933 9.54651 46.8455 11.0987 46.8455 13.0132V23.4132H1.77881V13.0132C1.77881 11.0987 3.33102 9.54651 5.24548 9.54651Z" fill="#CFDFE8"/>
<path d="M1.77881 23.4132H50.3121C51.2694 23.4132 52.0455 24.1893 52.0455 25.1465V39.0132H1.77881V23.4132Z" fill="white"/>
<path d="M1.77881 26.8799H5.24548V30.3465H1.77881V26.8799Z" fill="white"/>
<path d="M48.5786 26.8799H52.0453V30.3465H48.5786V26.8799Z" fill="white"/>
<path d="M1.77881 33.8132H52.0455V39.0132H1.77881V33.8132Z" fill="white"/>
<path d="M46.8455 13.0132H1.77881C1.77881 11.0987 3.33102 9.54651 5.24548 9.54651H43.3788C45.2933 9.54651 46.8455 11.0987 46.8455 13.0132Z" fill="white"/>
<path d="M37.312 13.0132H46.8453V23.4132H37.312V13.0132Z" fill="#7FCAC9"/>
<path d="M26.9121 13.0132H37.3121V33.8132H26.9121V13.0132Z" fill="white"/>
<path d="M8.71224 20.8132H4.37891V16.4799H6.11224V19.0799H8.71224V20.8132Z" fill="white"/>
<path d="M42.5122 15.6132H44.2455V17.3465H42.5122V15.6132Z" fill="white"/>
<path d="M39.9121 19.0799H41.6454V20.8132H39.9121V19.0799Z" fill="white"/>
<path d="M22.5791 15.6132H24.3124V17.3465H22.5791V15.6132Z" fill="white"/>
<path d="M48.5787 39.0132C48.5787 41.8849 46.2504 44.2132 43.3787 44.2132C40.507 44.2132 38.1787 41.8849 38.1787 39.0132C38.1787 36.1415 40.507 33.8132 43.3787 33.8132C46.2504 33.8132 48.5787 36.1415 48.5787 39.0132Z" fill="white"/>
<path d="M15.6456 39.0132C15.6456 41.8849 13.3173 44.2132 10.4456 44.2132C7.57393 44.2132 5.24561 41.8849 5.24561 39.0132C5.24561 36.1415 7.57393 33.8132 10.4456 33.8132C13.3173 33.8132 15.6456 36.1415 15.6456 39.0132Z" fill="white"/>
<path d="M12.1786 39.0132C12.1786 39.9704 11.4025 40.7465 10.4452 40.7465C9.48802 40.7465 8.71191 39.9704 8.71191 39.0132C8.71191 38.056 9.48802 37.2798 10.4452 37.2798C11.4025 37.2798 12.1786 38.056 12.1786 39.0132Z" fill="#CFDFE8"/>
<path d="M45.1122 39.0132C45.1122 39.9704 44.3361 40.7465 43.3788 40.7465C42.4216 40.7465 41.6455 39.9704 41.6455 39.0132C41.6455 38.056 42.4216 37.2798 43.3788 37.2798C44.3361 37.2798 45.1122 38.056 45.1122 39.0132Z" fill="#CFDFE8"/>
<path d="M10.4452 36.4132C9.00937 36.4132 7.84521 37.5773 7.84521 39.0132C7.84521 40.449 9.00937 41.6132 10.4452 41.6132C11.8811 41.6132 13.0452 40.449 13.0452 39.0132C13.0452 37.5773 11.8811 36.4132 10.4452 36.4132ZM10.4452 39.8798C9.9666 39.8798 9.57855 39.4918 9.57855 39.0132C9.57855 38.5346 9.9666 38.1465 10.4452 38.1465C10.9238 38.1465 11.3119 38.5346 11.3119 39.0132C11.3119 39.4918 10.9238 39.8798 10.4452 39.8798Z" fill="#0635C9"/>
<path d="M43.3788 36.4132C41.943 36.4132 40.7788 37.5773 40.7788 39.0132C40.7788 40.449 41.943 41.6132 43.3788 41.6132C44.8146 41.6132 45.9788 40.449 45.9788 39.0132C45.9788 37.5773 44.8146 36.4132 43.3788 36.4132ZM43.3788 39.8798C42.9002 39.8798 42.5121 39.4918 42.5121 39.0132C42.5121 38.5346 42.9002 38.1465 43.3788 38.1465C43.8574 38.1465 44.2455 38.5346 44.2455 39.0132C44.2455 39.4918 43.8574 39.8798 43.3788 39.8798Z" fill="#0635C9"/>
<path d="M6.11224 16.4799H4.37891V20.8132H8.71224V19.0799H6.11224V16.4799Z" fill="#0635C9"/>
<path d="M42.5122 15.6132H44.2455V17.3465H42.5122V15.6132Z" fill="#0635C9"/>
<path d="M39.9121 19.0799H41.6454V20.8132H39.9121V19.0799Z" fill="#0635C9"/>
<path d="M22.5786 15.6132H24.3119V17.3465H22.5786V15.6132Z" fill="#0635C9"/>
<path d="M50.3121 22.5478H47.7121V13.0144C47.7091 10.6222 45.771 8.68405 43.3788 8.68109H5.24544C2.85322 8.68405 0.915072 10.6222 0.912109 13.0144V39.0144C0.912109 39.493 1.30016 39.8811 1.77878 39.8811H4.44818C4.87643 42.8641 7.432 45.0786 10.4454 45.0786C13.4589 45.0786 16.0145 42.8641 16.4427 39.8811H37.3815C37.8098 42.8641 40.3653 45.0786 43.3788 45.0786C46.3922 45.0786 48.9478 42.8641 49.376 39.8811H52.0454C52.5241 39.8811 52.9121 39.493 52.9121 39.0144V25.1478C52.9121 23.7119 51.748 22.5478 50.3121 22.5478ZM51.1788 29.4811H49.4454V27.7478H51.1788V29.4811ZM51.1788 25.1478V26.0144H48.5788C48.1002 26.0144 47.7121 26.4025 47.7121 26.8811V30.3478C47.7121 30.8264 48.1002 31.2144 48.5788 31.2144H51.1788V32.9478H38.1788V24.2811H50.3121C50.7907 24.2811 51.1788 24.6691 51.1788 25.1478ZM37.3815 38.1478H16.4427C16.254 36.83 15.6349 35.6112 14.6827 34.6811H39.1407C38.1889 35.6117 37.5707 36.83 37.3815 38.1478ZM2.64544 13.8811H26.0454V22.5478H2.64544V13.8811ZM36.4454 32.9478H27.7788V13.8811H36.4454V32.9478ZM2.64544 27.7478H4.37878V29.4811H2.64544V27.7478ZM2.64544 31.2144H5.24544C5.72406 31.2144 6.11211 30.8264 6.11211 30.3478V26.8811C6.11211 26.4025 5.72406 26.0144 5.24544 26.0144H2.64544V24.2811H26.0454V32.9478H2.64544V31.2144ZM38.1788 22.5478V13.8811H45.9788V22.5478H38.1788ZM43.3788 10.4144C43.5392 10.4157 43.6991 10.4318 43.8561 10.4631C43.9048 10.4716 43.9509 10.4855 43.9983 10.4969C44.1045 10.5232 44.2086 10.5558 44.3106 10.5947C44.3597 10.6125 44.4079 10.6324 44.4562 10.6544C44.5569 10.7013 44.6547 10.7547 44.749 10.8139C44.7846 10.8363 44.8227 10.8562 44.8574 10.8808C44.9809 10.9662 45.0969 11.0627 45.2039 11.1685C45.2221 11.1867 45.2378 11.2083 45.256 11.2273C45.3423 11.3188 45.4223 11.4157 45.4951 11.5176C45.5239 11.5583 45.5497 11.6044 45.5759 11.6433C45.6322 11.733 45.6826 11.8261 45.7274 11.9226C45.749 11.9692 45.7718 12.0161 45.7909 12.0635C45.801 12.0906 45.8061 12.1198 45.8167 12.1503H2.80498C2.81514 12.1228 2.82064 12.0932 2.83079 12.0635C2.84984 12.0161 2.87269 11.9692 2.89427 11.9226C2.93913 11.8266 2.98991 11.733 3.04577 11.6433C3.07201 11.601 3.09782 11.5566 3.1266 11.5176C3.19938 11.4152 3.27894 11.3183 3.36569 11.2273C3.38389 11.2083 3.39954 11.1867 3.41774 11.1685C3.52438 11.0627 3.64076 10.9662 3.76432 10.8808C3.79902 10.8562 3.83711 10.8363 3.87266 10.8139C3.96702 10.7547 4.0652 10.7013 4.16634 10.6544C4.21331 10.6328 4.26198 10.6137 4.31107 10.5947C4.41305 10.5558 4.51716 10.5232 4.62337 10.4969C4.67077 10.4855 4.71689 10.4716 4.76514 10.4631C4.92341 10.4318 5.08421 10.4153 5.24544 10.4144H43.3788ZM2.64544 34.6811H6.20732C5.2556 35.6117 4.63734 36.83 4.44818 38.1478H2.64544V34.6811ZM10.4454 43.3478C8.05238 43.3478 6.11211 41.4075 6.11211 39.0144C6.11211 36.6214 8.05238 34.6811 10.4454 34.6811C12.8385 34.6811 14.7788 36.6214 14.7788 39.0144C14.7758 41.4066 12.8377 43.3448 10.4454 43.3478ZM43.3788 43.3478C40.9857 43.3478 39.0454 41.4075 39.0454 39.0144C39.0454 36.6214 40.9857 34.6811 43.3788 34.6811C45.7718 34.6811 47.7121 36.6214 47.7121 39.0144C47.7091 41.4066 45.771 43.3448 43.3788 43.3478ZM51.1788 38.1478H49.376C49.1873 36.83 48.5682 35.6112 47.616 34.6811H51.1788V38.1478Z" fill="#0635C9"/>
</g>
<defs>
<clipPath id="clip0_222_1779">
<rect width="52" height="52" fill="white" transform="translate(0.912109 0.879852)"/>
</clipPath>
</defs>
</svg>
