<svg width="41" height="42" viewBox="0 0 41 42" fill="none" xmlns="http://www.w3.org/2000/svg">
<g clip-path="url(#clip0_222_1806)">
<path d="M11.436 37.5744C9.19724 37.5752 7.3824 35.7205 7.3828 33.4331V5.15847C7.38003 4.80864 7.42436 4.46043 7.5146 4.12314H7.3828C5.14403 4.12233 3.32919 5.97703 3.32959 8.26446V36.5391C3.32919 38.8265 5.14403 40.6812 7.3828 40.6804H33.7286C35.5771 40.6824 37.1913 39.4036 37.6504 37.5744H11.436Z" fill="#D4E1F4"/>
<path d="M33.7288 3.0878H29.5236V1.08953C29.5236 0.517671 29.0699 0.0541992 28.5103 0.0541992C27.951 0.0541992 27.497 0.517671 27.497 1.08953V3.07728H13.6147V1.08953C13.6147 0.517671 13.1611 0.0541992 12.6014 0.0541992C12.0421 0.0541992 11.5881 0.517671 11.5881 1.08953V3.07728H7.38292C4.58525 3.0785 2.31759 5.39545 2.31641 8.25393V36.529C2.31759 39.3874 4.58525 41.7044 7.38292 41.7056H33.7288C36.5268 41.7044 38.7945 39.3874 38.7953 36.529V8.26445C38.7945 5.40597 36.5268 3.08861 33.7288 3.0878ZM36.7687 36.5391C36.7639 38.2526 35.4059 39.6402 33.7288 39.6451H7.38292C5.70622 39.6402 4.34816 38.2526 4.34301 36.5391V12.8818H36.7687V36.5391ZM36.7687 10.8111H4.34301V8.26445C4.34816 6.55089 5.70622 5.16331 7.38292 5.15846H11.5881V7.14621C11.5881 7.71807 12.0421 8.18154 12.6014 8.18154C13.1611 8.18154 13.6147 7.71807 13.6147 7.14621V5.15846H27.4871V7.14621C27.4871 7.71807 27.9407 8.18154 28.5004 8.18154C29.0601 8.18154 29.5137 7.71807 29.5137 7.14621V5.15846H33.7288C35.4059 5.16331 36.7639 6.55089 36.7687 8.26445V10.8111Z" fill="#0635C9"/>
<path d="M25.8087 20.7919L20.7887 32.8319H17.2887L22.3687 21.1719H16.1487V18.2519H25.8087V20.7919Z" fill="#1AE5BE"/>
</g>
<defs>
<clipPath id="clip0_222_1806">
<rect width="40.7651" height="41.6513" fill="white" transform="translate(0.158203 0.0541992)"/>
</clipPath>
</defs>
</svg>
