<svg width="61" height="62" viewBox="0 0 61 62" fill="none" xmlns="http://www.w3.org/2000/svg">
<g clip-path="url(#clip0_222_1744)">
<path d="M1.6416 24.2561V16.1032H5.65896L8.67198 24.2561L7.66764 25.2752L1.6416 24.2561Z" fill="#FBB540"/>
<path d="M1.6416 16.1032V24.7657L5.65896 25.2752L6.6633 24.2561L3.65028 16.1032H1.6416Z" fill="#64A8B2"/>
<path d="M39.8066 25.2752L26.7502 7.95038H20.7241L30.7675 31.3899L39.8066 25.2752Z" fill="white"/>
<path d="M55.7696 36.4855H28.0668C23.8636 36.4855 19.6834 35.8629 15.6572 34.6378L7.36654 32.1134C3.96855 31.0784 1.6416 27.9051 1.6416 24.3049V24.2561H47.2606C50.2221 24.2561 53.0797 25.3623 55.2885 27.3632L55.876 27.8957L57.1564 28.3599C58.7983 28.9546 59.8938 30.5325 59.8933 32.301C59.8933 34.6119 58.047 36.4855 55.7696 36.4855Z" fill="#FFFFFE"/>
<path d="M35.7892 12.0268H19.7197V16.1032H35.7892C36.8985 16.1032 37.7978 15.1906 37.7978 14.065C37.7978 12.9394 36.8985 12.0268 35.7892 12.0268Z" fill="#CBCBCB"/>
<path d="M44.8281 27.3135H46.8368V29.3517H44.8281V27.3135Z" fill="#A8D6DA"/>
<path d="M40.811 27.3135H42.8197V29.3517H40.811V27.3135Z" fill="#A8D6DA"/>
<path d="M36.7935 27.3135H38.8021V29.3517H36.7935V27.3135Z" fill="#A8D6DA"/>
<path d="M32.7764 27.3135H34.785V29.3517H32.7764V27.3135Z" fill="#A8D6DA"/>
<path d="M28.7588 27.3135H30.7675V29.3517H28.7588V27.3135Z" fill="#A8D6DA"/>
<path d="M31.0799 36.4855L27.322 33.356C24.9798 31.4058 23.2291 28.8237 22.2708 25.9072L21.7285 24.2561H11.6851L20.4873 33.1878C21.9643 34.6861 23.7646 35.8152 25.7458 36.4855H31.0799Z" fill="#A8D6DA"/>
<path d="M20.9541 25.9072L20.4117 24.2561H11.6851L20.4873 33.1878C21.9643 34.6861 23.7646 35.8152 25.7458 36.4855H29.7632L26.0052 33.356C23.6631 31.4058 21.9124 28.8237 20.9541 25.9072Z" fill="#64A8B2"/>
<path d="M48.8457 29.3517H58.6885C58.257 28.9093 57.7337 28.5704 57.1565 28.3599L55.8761 27.8957L55.2886 27.3632C55.2685 27.3453 55.2474 27.3309 55.2283 27.3134H48.8457V29.3517Z" fill="#A8D6DA"/>
<path d="M14.6978 13.0459H16.7064V15.0841H14.6978V13.0459Z" fill="#E4E4E2"/>
<path d="M10.6807 13.0459H12.6893V15.0841H10.6807V13.0459Z" fill="#D9D9D9"/>
<path d="M15.7021 52.7912H17.7108V54.8294H15.7021V52.7912Z" fill="#E4E4E2"/>
<path d="M11.6851 52.7912H13.6937V54.8294H11.6851V52.7912Z" fill="#D9D9D9"/>
<path d="M14.6978 46.6765H16.7064V48.7148H14.6978V46.6765Z" fill="#D9D9D9"/>
<path d="M7.66748 52.7912H9.67616V54.8294H7.66748V52.7912Z" fill="#E4E4E2"/>
<path d="M10.6807 46.6765H12.6893V48.7148H10.6807V46.6765Z" fill="#E4E4E2"/>
<path d="M15.7021 6.93124H17.7108V8.96946H15.7021V6.93124Z" fill="#D9D9D9"/>
<path d="M7.66748 6.93124H9.67616V8.96946H7.66748V6.93124Z" fill="#D9D9D9"/>
<path d="M11.6851 6.93124H13.6937V8.96946H11.6851V6.93124Z" fill="#E4E4E2"/>
<path d="M29.7632 32.409H42.8196L26.7502 53.8103H20.7241L29.7632 32.409Z" fill="white"/>
<path d="M19.7197 45.6574H35.7892C36.8985 45.6574 37.7978 46.5701 37.7978 47.6957C37.7978 48.8213 36.8985 49.7339 35.7892 49.7339H19.7197V45.6574Z" fill="#CBCBCB"/>
<path d="M57.4943 27.4L56.3993 27.0024L55.9574 26.6034C53.5657 24.4343 50.4698 23.236 47.2621 23.237H39.4912L34.9006 17.1224H35.7892C37.4531 17.1224 38.8022 15.7534 38.8022 14.065C38.8022 12.3766 37.4531 11.0077 35.7892 11.0077H30.3085L27.5539 7.33283C27.3627 7.07855 27.0655 6.92976 26.7502 6.93126H20.7241C20.3867 6.93126 20.0714 7.10343 19.886 7.38956C19.7002 7.67568 19.6683 8.03695 19.8012 8.35194L20.9252 11.0077H19.7198C19.1651 11.0077 18.7154 11.464 18.7154 12.0268V16.1032C18.7154 16.666 19.1651 17.1224 19.7198 17.1224H23.5052L26.0886 23.237H9.36791L6.60009 15.7455C6.45297 15.3474 6.07781 15.0841 5.65901 15.0841H1.64165C1.087 15.0841 0.637306 15.5404 0.637306 16.1032V24.2561V24.2805V24.3049C0.61867 28.3619 3.24428 31.9427 7.07921 33.0897L15.3689 35.6141C18.6105 36.5984 21.9521 37.2015 25.329 37.412C25.3633 37.4239 25.3942 37.4414 25.4295 37.4528L25.4408 37.418C25.8042 37.4404 26.1676 37.4637 26.5314 37.4762L23.5052 44.6383H19.7198C19.1651 44.6383 18.7154 45.0946 18.7154 45.6574V49.7339C18.7154 50.2967 19.1651 50.753 19.7198 50.753H20.9252L19.8031 53.4087C19.6702 53.7232 19.7021 54.0845 19.8875 54.3706C20.0724 54.6562 20.3872 54.8289 20.7241 54.8294H26.7502C27.0655 54.8309 27.3627 54.6821 27.5539 54.4278L30.3085 50.753H35.7892C37.4531 50.753 38.8022 49.384 38.8022 47.6956C38.8022 46.0073 37.4531 44.6383 35.7892 44.6383H34.9006L40.2568 37.5046H55.7696C58.2648 37.505 60.398 35.6833 60.8237 33.1888C61.2493 30.6942 59.8438 28.251 57.4943 27.4ZM26.2529 8.96947L27.7829 11.0077H23.1075L22.2478 8.96947H26.2529ZM20.7241 15.0841V13.0459H35.7892C36.3439 13.0459 36.7936 13.5022 36.7936 14.065C36.7936 14.6278 36.3439 15.0841 35.7892 15.0841H20.7241ZM25.6909 17.1224H32.3746L36.8088 23.027L28.2719 23.2216L25.6909 17.1224ZM2.64599 17.1224H4.96313L7.22289 23.237H2.64599V17.1224ZM15.9456 33.6615L7.65592 31.1371C5.01217 30.3449 3.07607 28.0479 2.71415 25.2752H11.2692L19.7771 33.9083C20.0856 34.2223 20.4201 34.5074 20.7555 34.7906C19.1318 34.5099 17.5257 34.1327 15.9456 33.6615ZM25.7208 35.3797C24.025 34.7513 22.4832 33.7575 21.2013 32.4672L14.1096 25.2752H21.0056L21.319 26.2302C22.3361 29.3283 24.1957 32.0706 26.6839 34.1417L27.6118 34.914L27.3901 35.439C26.8296 35.4315 26.273 35.4116 25.7208 35.3797ZM26.2529 52.7912H22.2478L23.1075 50.753H27.7829L26.2529 52.7912ZM35.7892 46.6765C36.3439 46.6765 36.7936 47.1329 36.7936 47.6956C36.7936 48.2584 36.3439 48.7148 35.7892 48.7148H20.7241V46.6765H35.7892ZM32.3746 44.6383H25.6909L28.7039 37.5046H37.7317L32.3746 44.6383ZM39.2622 35.4663H29.5626L30.4232 33.4281H40.7918L39.2622 35.4663ZM55.7696 35.4663H41.7873L43.6234 33.0265C43.8548 32.718 43.8941 32.302 43.7234 31.9547C43.5527 31.6073 43.2021 31.3884 42.8196 31.3899H29.7632C29.3615 31.3899 28.9986 31.6327 28.8402 32.0074L28.4386 32.9653L27.9614 32.5682C25.764 30.739 24.1216 28.3171 23.2232 25.5813L23.1227 25.2752H47.2621C49.5302 25.2772 51.7429 25.9888 53.5981 27.3135H48.8456V29.3517H56.8804C58.2893 29.8916 59.1151 31.377 58.842 32.8797C58.5693 34.3825 57.2756 35.4718 55.7696 35.4663Z" fill="#0635C9"/>
<path d="M44.8281 27.3134H46.8368V29.3517H44.8281V27.3134Z" fill="black"/>
<path d="M40.811 27.3134H42.8197V29.3517H40.811V27.3134Z" fill="black"/>
<path d="M36.7935 27.3134H38.8021V29.3517H36.7935V27.3134Z" fill="black"/>
<path d="M32.7759 27.3134H34.7846V29.3517H32.7759V27.3134Z" fill="black"/>
<path d="M28.7588 27.3134H30.7675V29.3517H28.7588V27.3134Z" fill="black"/>
</g>
<defs>
<clipPath id="clip0_222_1744">
<rect width="60.2615" height="61.1477" fill="white" transform="translate(0.637207 0.306)"/>
</clipPath>
</defs>
</svg>
