<svg width="32" height="32" viewBox="0 0 32 32" fill="none" xmlns="http://www.w3.org/2000/svg">
<path d="M27.9666 23.9533C27.6599 26.9667 25.0999 29.3333 21.9999 29.3333H21.2666C21.3066 29.12 21.3333 28.8933 21.3333 28.6667C21.3333 28.44 21.3066 28.2133 21.2666 28H21.9999C24.3466 28 26.2933 26.26 26.6133 24H27.3333C27.5466 24 27.7599 23.9867 27.9666 23.9533Z" fill="white"/>
<path d="M17.9999 26.6667H15.3333C14.2287 26.6667 13.3333 27.5621 13.3333 28.6667C13.3333 29.7712 14.2287 30.6667 15.3333 30.6667H17.9999C19.1045 30.6667 19.9999 29.7712 19.9999 28.6667C19.9999 27.5621 19.1045 26.6667 17.9999 26.6667Z" fill="white"/>
<path d="M28.2268 12.0867C27.9401 12.0267 27.6401 12 27.3334 12H26.1934C25.4001 7.09334 21.1334 3.33334 16.0001 3.33334C10.8668 3.33334 6.6001 7.09334 5.80677 12H4.66677C4.3601 12 4.0601 12.0267 3.77344 12.0867C4.54677 6.02668 9.73344 1.33334 16.0001 1.33334C22.2668 1.33334 27.4534 6.02668 28.2268 12.0867Z" fill="white"/>
<path d="M27.3334 22.6667H26.0001C25.2647 22.6667 24.6667 22.0687 24.6667 21.3333V14.6667C24.6667 13.9313 25.2647 13.3333 26.0001 13.3333H27.3334C29.1714 13.3333 30.6667 14.8287 30.6667 16.6667V19.3333C30.6667 21.1713 29.1714 22.6667 27.3334 22.6667Z" fill="white"/>
<path d="M1.33325 19.3333V16.6667C1.33325 14.8287 2.82859 13.3333 4.66659 13.3333H5.99992C6.73525 13.3333 7.33325 13.9313 7.33325 14.6667V21.3333C7.33325 22.0687 6.73525 22.6667 5.99992 22.6667H4.66659C2.82859 22.6667 1.33325 21.1713 1.33325 19.3333Z" fill="white"/>
<path d="M19.3333 12.6667H12.6667C11.194 12.6667 10 13.8607 10 15.3333V19.3333C10 20.806 11.194 22 12.6667 22H13.3333V23.862C13.3333 24.1587 13.6927 24.308 13.9027 24.098L16 22.0007H19.3333C20.806 22.0007 22 20.8067 22 19.334V15.334C22 13.8613 20.806 12.6673 19.3333 12.6673V12.6667ZM17.3333 19.3333H13.3333C12.9653 19.3333 12.6667 19.0353 12.6667 18.6667C12.6667 18.298 12.9653 18 13.3333 18H17.3333C17.7013 18 18 18.298 18 18.6667C18 19.0353 17.7013 19.3333 17.3333 19.3333ZM18.6667 16.6667H13.3333C12.9653 16.6667 12.6667 16.368 12.6667 16C12.6667 15.632 12.9653 15.3333 13.3333 15.3333H18.6667C19.0347 15.3333 19.3333 15.632 19.3333 16C19.3333 16.368 19.0347 16.6667 18.6667 16.6667Z" fill="white"/>
</svg>
