<svg width="19" height="22" viewBox="0 0 19 22" fill="none" xmlns="http://www.w3.org/2000/svg">
<path d="M9.62293 12.4275C10.0327 12.4275 10.4384 12.3468 10.8169 12.19C11.1954 12.0332 11.5394 11.8034 11.8291 11.5137C12.1188 11.224 12.3486 10.88 12.5054 10.5015C12.6622 10.1229 12.7429 9.71722 12.7429 9.3075C12.7429 8.89778 12.6622 8.49206 12.5054 8.11353C12.3486 7.73499 12.1188 7.39105 11.8291 7.10133C11.5394 6.81161 11.1954 6.58179 10.8169 6.425C10.4384 6.2682 10.0327 6.1875 9.62293 6.1875C8.79545 6.1875 8.00187 6.51621 7.41676 7.10133C6.83164 7.68644 6.50293 8.48002 6.50293 9.3075C6.50293 10.135 6.83164 10.9286 7.41676 11.5137C8.00187 12.0988 8.79545 12.4275 9.62293 12.4275V12.4275Z" stroke="white" stroke-width="1.5"/>
<path d="M1.24276 7.49C3.21276 -1.17 16.0428 -1.16 18.0028 7.5C19.1528 12.58 15.9928 16.88 13.2228 19.54C12.2548 20.4735 10.9625 20.9952 9.61776 20.9952C8.273 20.9952 6.98068 20.4735 6.01276 19.54C3.25276 16.88 0.0927559 12.57 1.24276 7.49V7.49Z" stroke="white" stroke-width="1.5"/>
</svg>
