<svg width="22" height="23" viewBox="0 0 22 23" fill="none" xmlns="http://www.w3.org/2000/svg">
<path d="M7.5 18.4702H7C3 18.4702 1 17.4702 1 12.4702V7.47021C1 3.47021 3 1.47021 7 1.47021H15C19 1.47021 21 3.47021 21 7.47021V12.4702C21 16.4702 19 18.4702 15 18.4702H14.5C14.19 18.4702 13.89 18.6202 13.7 18.8702L12.2 20.8702C11.54 21.7502 10.46 21.7502 9.8 20.8702L8.3 18.8702C8.14 18.6502 7.77 18.4702 7.5 18.4702V18.4702Z" stroke="white" stroke-width="1.5" stroke-miterlimit="10" stroke-linecap="round" stroke-linejoin="round"/>
<path d="M6 7.47021H16M6 12.4702H12" stroke="white" stroke-width="1.5" stroke-linecap="round" stroke-linejoin="round"/>
</svg>
