<svg width="45" height="45" viewBox="0 0 45 45" fill="none" xmlns="http://www.w3.org/2000/svg">
<path d="M22.5 41.25C30.2438 41.25 36.5625 34.9313 36.5625 27.1875V17.8125C36.5625 10.0688 30.2438 3.75 22.5 3.75C14.7562 3.75 8.4375 10.0688 8.4375 17.8125V27.1875C8.4375 34.9313 14.7562 41.25 22.5 41.25Z" stroke="white" stroke-width="2" stroke-linecap="round" stroke-linejoin="round"/>
<path d="M22.5 11.25V3.75M22.5 20.625C20.9438 20.625 19.6875 19.3687 19.6875 17.8125V14.0625C19.6875 12.5063 20.9438 11.25 22.5 11.25C24.0375 11.25 25.3125 12.5063 25.3125 14.0625V17.8125C25.3125 19.3687 24.0375 20.625 22.5 20.625Z" stroke="white" stroke-width="2" stroke-linecap="round" stroke-linejoin="round"/>
</svg>
