<svg width="35" height="36" viewBox="0 0 35 36" fill="none" xmlns="http://www.w3.org/2000/svg">
<path d="M29.6975 31.8684L23.6408 25.8117M13.8167 26.9996C15.2586 26.9996 16.6864 26.7077 18.0185 26.1406C19.3506 25.5735 20.561 24.7422 21.5806 23.6943C22.6002 22.6464 23.4089 21.4024 23.9607 20.0333C24.5125 18.6641 24.7965 17.1967 24.7965 15.7148C24.7965 14.2328 24.5125 12.7654 23.9607 11.3963C23.4089 10.0271 22.6002 8.78311 21.5806 7.73521C20.561 6.68732 19.3506 5.85609 18.0185 5.28898C16.6864 4.72186 15.2586 4.42997 13.8167 4.42997C10.9047 4.42997 8.11194 5.6189 6.05282 7.73521C3.99371 9.85153 2.83691 12.7219 2.83691 15.7148C2.83691 18.7077 3.99371 21.578 6.05282 23.6943C8.11194 25.8106 10.9047 26.9996 13.8167 26.9996Z" stroke="white" stroke-width="2" stroke-linecap="round" stroke-linejoin="round"/>
</svg>
