<svg width="35" height="37" viewBox="0 0 35 37" fill="none" xmlns="http://www.w3.org/2000/svg">
<path d="M29.7678 32.3198L23.7111 26.263M13.887 27.4509C15.3289 27.4509 16.7567 27.159 18.0888 26.5919C19.421 26.0248 20.6314 25.1936 21.6509 24.1457C22.6705 23.0978 23.4793 21.8537 24.031 20.4846C24.5828 19.1155 24.8668 17.648 24.8668 16.1661C24.8668 14.6842 24.5828 13.2167 24.031 11.8476C23.4793 10.4785 22.6705 9.23443 21.6509 8.18654C20.6314 7.13865 19.421 6.30742 18.0888 5.74031C16.7567 5.17319 15.3289 4.8813 13.887 4.8813C10.975 4.8813 8.18225 6.07023 6.12314 8.18654C4.06402 10.3029 2.90723 13.1732 2.90723 16.1661C2.90723 19.159 4.06402 22.0294 6.12314 24.1457C8.18225 26.262 10.975 27.4509 13.887 27.4509Z" stroke="#888888" stroke-width="2" stroke-linecap="round" stroke-linejoin="round"/>
</svg>
