<svg width="45" height="44" viewBox="0 0 45 44" fill="none" xmlns="http://www.w3.org/2000/svg">
<g clip-path="url(#clip0_222_1859)">
<path d="M34.6142 14.7132C34.6142 16.2963 33.3008 17.5799 31.6809 17.5799C30.061 17.5799 28.7476 16.2963 28.7476 14.7132C28.7476 13.1301 30.061 11.8465 31.6809 11.8465C33.3008 11.8465 34.6142 13.1301 34.6142 14.7132Z" fill="#9BC9FF"/>
<path d="M23.3258 14.2996C22.7529 13.7397 21.824 13.7397 21.2511 14.2996L16.3255 19.1136C15.8954 19.5335 15.8954 20.2145 16.3255 20.6344C16.7552 21.054 17.4512 21.054 17.8809 20.6344L22.2888 16.3264L25.7034 19.6634C26.117 20.0689 26.7855 20.0798 27.2127 19.6875L27.2395 19.6623C27.4522 19.4656 27.574 19.1934 27.5779 18.9072C27.5815 18.6213 27.4665 18.3459 27.2596 18.1439L23.3258 14.2996Z" fill="#9BC9FF"/>
<path d="M22.7688 24.0824C22.4924 23.8028 22.0835 23.6908 21.6989 23.7891C21.3143 23.8874 21.0139 24.181 20.9133 24.5569C20.8127 24.9327 20.9273 25.3323 21.2134 25.6021L25.6212 29.9102L22.2597 33.1947C21.83 33.6142 21.83 34.2952 22.2593 34.7151C22.689 35.135 23.3854 35.135 23.8151 34.7155L27.6952 30.9236C28.2681 30.3637 28.2681 29.456 27.6952 28.8961L22.7688 24.0824Z" fill="#9BC9FF"/>
<path d="M28.0142 24.7465C28.0142 25.5381 28.6709 26.1798 29.4808 26.1798H34.9808C35.5885 26.1798 36.0808 25.6987 36.0808 25.1048C36.0808 24.511 35.5885 24.0298 34.9808 24.0298H30.2142V21.1632L28.0142 22.5965V24.7465Z" fill="#9BC9FF"/>
<path d="M11.5436 36.231C11.9762 36.6359 12.6608 36.6279 13.0837 36.2132L21.0476 28.4275C21.0476 28.4275 19.4921 26.9074 19.529 26.8706L11.5253 34.6924C11.3155 34.8971 11.1991 35.176 11.2027 35.4654C11.2059 35.7551 11.3291 36.0312 11.5436 36.231Z" fill="#9BC9FF"/>
<path d="M22.1475 0.379852C21.7425 0.379852 21.4141 0.700743 21.4141 1.09652V3.96319C21.4141 4.35896 21.7425 4.67985 22.1475 4.67985C22.5524 4.67985 22.8808 4.35896 22.8808 3.96319V1.83103C34.0251 2.21736 42.8165 11.2254 42.6847 22.1224C42.553 33.0193 33.546 41.8216 22.3956 41.9504C11.2452 42.0791 2.0277 33.4875 1.63239 22.5965H3.81413C4.21911 22.5965 4.54746 22.2756 4.54746 21.8799C4.54746 21.4841 4.21911 21.1632 3.81413 21.1632H0.880794C0.475814 21.1632 0.147461 21.4841 0.147461 21.8799C0.147461 33.7538 9.99733 43.3799 22.1475 43.3799C34.2976 43.3799 44.1475 33.7538 44.1475 21.8799C44.1475 10.0059 34.2976 0.379852 22.1475 0.379852Z" fill="#0321A5"/>
<path d="M31.9858 11.1421C29.9677 10.9773 28.1949 12.4428 28.0266 14.415C27.858 16.3873 29.3576 18.1198 31.3757 18.2843C31.4792 18.293 31.5808 18.2965 31.6829 18.2965C33.5875 18.293 35.1734 16.8667 35.3342 15.012C35.5007 13.0405 34.0028 11.3094 31.9858 11.1421ZM31.4974 16.8562C30.3204 16.7621 29.4295 15.7766 29.4786 14.6236C29.528 13.4706 30.4998 12.5611 31.6807 12.5632C31.7416 12.5632 31.8032 12.5632 31.8655 12.5702C33.0765 12.6692 33.976 13.7089 33.875 14.8924C33.7737 16.0758 32.7098 16.9549 31.4988 16.8562H31.4974Z" fill="#0321A5"/>
<path d="M23.8436 13.7928C22.9731 12.981 21.6035 12.981 20.7326 13.7928L15.807 18.6076C15.0966 19.3082 15.0991 20.4385 15.8131 21.1359C16.5267 21.8333 17.6833 21.8354 18.4002 21.1411L22.2867 17.3426L25.1835 20.1722C25.8882 20.8619 27.0301 20.8675 27.7419 20.1848C28.0978 19.8551 28.3023 19.3985 28.3088 18.9194C28.3156 18.44 28.1233 17.9784 27.7763 17.6393L23.8436 13.7928ZM26.7103 19.1678C26.5717 19.2949 26.3551 19.2907 26.2219 19.1587L22.8073 15.8197C22.5209 15.5401 22.0568 15.5401 21.7703 15.8197L17.3639 20.1277C17.2207 20.2677 16.9883 20.268 16.845 20.1281C16.7018 19.9881 16.7015 19.761 16.8447 19.621L21.7703 14.8063C22.0568 14.5267 22.5209 14.5267 22.8073 14.8063L26.7418 18.6506C26.8095 18.7164 26.8467 18.8067 26.8442 18.8998C26.8399 19.003 26.7912 19.0996 26.7103 19.1657V19.1678Z" fill="#0321A5"/>
<path d="M23.0274 35.7467H23.0367C23.523 35.7481 23.9892 35.5592 24.3319 35.2222L28.2119 31.4303C29.0713 30.5904 29.0713 29.2289 28.2119 28.3894L23.287 23.5757C22.5615 22.8985 21.4197 22.8985 20.6946 23.5757C19.9788 24.2752 19.9788 25.4093 20.6946 26.1088L24.5811 29.9074L21.738 32.6859C21.0315 33.3812 21.0251 34.502 21.724 35.2047C22.066 35.5501 22.5358 35.7453 23.0274 35.7467ZM22.7771 33.7049L26.1387 30.4197C26.4252 30.1397 26.4252 29.6862 26.1387 29.4063L21.7323 25.0986C21.637 25.0083 21.5987 24.8753 21.6323 24.75C21.6656 24.6248 21.7659 24.5268 21.8941 24.4939C22.0223 24.4613 22.1587 24.4984 22.2507 24.5919L27.1757 29.4049C27.4621 29.6848 27.4621 30.1383 27.1757 30.4183L23.2949 34.2067C23.2268 34.2739 23.1341 34.3117 23.0374 34.3113C22.9372 34.3173 22.8398 34.277 22.7742 34.2028C22.6378 34.0632 22.6389 33.8431 22.7771 33.7049Z" fill="#0321A5"/>
<path d="M34.9808 26.8965C35.9934 26.8965 36.8141 26.0945 36.8141 25.1048C36.8141 24.1152 35.9934 23.3132 34.9808 23.3132H30.9474V21.1632C30.9474 20.899 30.7985 20.6558 30.56 20.5312C30.3215 20.4066 30.0322 20.4203 29.807 20.5669L27.607 22.0002C27.4032 22.1332 27.2808 22.3568 27.2808 22.5965V24.7465C27.2808 25.9338 28.2658 26.8965 29.4808 26.8965H34.9808ZM28.7474 24.7465V22.98L29.4808 22.5027V24.0298C29.4808 24.4256 29.8091 24.7465 30.2141 24.7465H34.9808C35.1834 24.7465 35.3474 24.9068 35.3474 25.1048C35.3474 25.3029 35.1834 25.4632 34.9808 25.4632H29.4808C29.0758 25.4632 28.7474 25.1423 28.7474 24.7465Z" fill="#0321A5"/>
<path d="M21.566 27.9208C20.9971 27.3637 20.326 26.6922 20.1574 26.5018C20.1259 26.4511 20.0886 26.4045 20.0457 26.3625C19.7596 26.0836 19.2966 26.0836 19.0105 26.3625L11.0068 34.1857C10.2907 34.8855 10.2907 36.02 11.0068 36.7199C11.723 37.4198 12.8839 37.4198 13.6 36.7199L21.566 28.9338C21.8521 28.6542 21.8521 28.2004 21.566 27.9208ZM12.563 35.7058C12.4198 35.8458 12.1874 35.8461 12.0442 35.7061C11.9006 35.5662 11.9006 35.3391 12.0438 35.1991L19.4989 27.9141C19.6453 28.0646 19.8154 28.2347 20.012 28.4264L12.563 35.7058Z" fill="#0321A5"/>
<path d="M18.9637 4.95211C19.0067 4.95211 19.0496 4.94861 19.0919 4.94161C19.4908 4.87267 19.7572 4.50069 19.6866 4.11087L19.1732 1.28794C19.0944 0.906861 18.7188 0.657008 18.3274 0.724545C17.9357 0.792083 17.6703 1.15217 17.7294 1.53639L18.2425 4.36037C18.3045 4.70226 18.6081 4.95176 18.9637 4.95211Z" fill="#0321A5"/>
<path d="M15.1881 5.28908C15.2938 5.57182 15.5688 5.76044 15.8771 5.76044C15.9626 5.76079 16.0475 5.74609 16.1277 5.7167C16.5087 5.58232 16.7056 5.17115 16.5678 4.79882L15.563 2.10502C15.4191 1.74074 15.0034 1.55597 14.6281 1.68965C14.2528 1.82297 14.0559 2.22575 14.1852 2.59493L15.1881 5.28908Z" fill="#0321A5"/>
<path d="M12.3457 6.72172C12.476 6.94533 12.7185 7.08355 12.9816 7.08425C13.2448 7.0846 13.4883 6.94743 13.6194 6.72452C13.7504 6.50126 13.749 6.22691 13.6161 6.00505L12.1495 3.52226C11.9454 3.18248 11.4992 3.06735 11.1501 3.26436C10.801 3.46138 10.6799 3.8967 10.879 4.23893L12.3457 6.72172Z" fill="#0321A5"/>
<path d="M9.80178 8.61591C10.0621 8.91965 10.5247 8.95954 10.8359 8.70549C11.1467 8.45109 11.1875 7.99862 10.9276 7.69488L9.03908 5.49834C8.77482 5.21139 8.32508 5.18059 8.02251 5.4287C7.71994 5.67715 7.67303 6.11492 7.91652 6.41901L9.80178 8.61591Z" fill="#0321A5"/>
<path d="M7.63201 10.915C7.94281 11.1592 8.39685 11.1155 8.65323 10.8167C8.90961 10.5182 8.87452 10.0737 8.57446 9.8169L6.32826 7.97449C6.0171 7.73023 5.56342 7.77363 5.30668 8.07247C5.0503 8.37131 5.08539 8.81538 5.38582 9.07223L7.63201 10.915Z" fill="#0321A5"/>
<path d="M3.36416 12.109L5.90433 13.5423C6.13135 13.6721 6.41207 13.6735 6.64053 13.5455C6.86862 13.4174 7.00898 13.1794 7.00862 12.9222C7.00791 12.665 6.86647 12.4281 6.63766 12.3007L4.09749 10.8674C3.74694 10.6728 3.3015 10.7911 3.0999 11.1323C2.89831 11.4735 3.01611 11.9095 3.36416 12.109Z" fill="#0321A5"/>
<path d="M1.91287 15.4449L4.66932 16.4254C4.74952 16.4545 4.83439 16.4692 4.91997 16.4692C5.27625 16.4692 5.58097 16.2197 5.64292 15.8767C5.70486 15.5341 5.50577 15.1975 5.17098 15.0785L2.41417 14.0984C2.03641 13.972 1.62426 14.1645 1.48784 14.5312C1.35105 14.898 1.54012 15.3042 1.91287 15.4449Z" fill="#0321A5"/>
<path d="M1.07655 18.9768L3.96512 19.4748C4.00738 19.4818 4.05035 19.4853 4.09331 19.4856C4.47395 19.4856 4.7912 19.2015 4.82414 18.8309C4.85744 18.4607 4.59497 18.1272 4.22043 18.0628L1.33078 17.5613C0.931889 17.4927 0.551615 17.7531 0.481433 18.1429C0.411251 18.5327 0.677657 18.9044 1.07655 18.973V18.9768Z" fill="#0321A5"/>
</g>
<defs>
<clipPath id="clip0_222_1859">
<rect width="44" height="43" fill="white" transform="translate(0.147461 0.379852)"/>
</clipPath>
</defs>
</svg>
