<svg width="22" height="23" viewBox="0 0 22 23" fill="none" xmlns="http://www.w3.org/2000/svg">
<path d="M11 21.5C16.52 21.5 21 17.02 21 11.5C21 5.98 16.52 1.5 11 1.5C5.48 1.5 1 5.98 1 11.5C1 17.02 5.48 21.5 11 21.5Z" stroke="white" stroke-width="1.5" stroke-linecap="round" stroke-linejoin="round"/>
<path d="M20.17 7.49988C17.15 6.83988 14.02 6.83988 11 7.49988M11 15.4999C13.21 15.4999 15 13.7099 15 11.4999C15 9.28988 13.21 7.49988 11 7.49988C8.79 7.49988 7 9.28988 7 11.4999C7 13.7099 8.79 15.4999 11 15.4999Z" stroke="white" stroke-width="1.5" stroke-linecap="round" stroke-linejoin="round"/>
<path d="M2.94995 5.56006L2.96995 5.62006C3.97995 8.51006 5.52995 11.1901 7.53995 13.5001M9.87995 21.4401C11.94 19.1701 13.49 16.4901 14.43 13.5801L14.46 13.5001" stroke="white" stroke-width="1.5" stroke-linecap="round" stroke-linejoin="round"/>
</svg>
