<svg width="36" height="36" viewBox="0 0 36 36" fill="none" xmlns="http://www.w3.org/2000/svg">
<path d="M12.6006 3.26683V7.64183M24.2673 3.26683V7.64183M6.03809 13.6064H30.8298M28.9485 23.3481L23.786 28.5106C23.5818 28.7147 23.3923 29.0939 23.3485 29.371L23.0714 31.3397C22.9693 32.0543 23.4652 32.5502 24.1798 32.4481L26.1485 32.171C26.4256 32.1272 26.8193 31.9377 27.0089 31.7335L32.1714 26.571C33.061 25.6814 33.4839 24.646 32.1714 23.3335C30.8735 22.0356 29.8381 22.4585 28.9485 23.3481Z" stroke="#9A9A9A" stroke-width="1.5" stroke-miterlimit="10" stroke-linecap="round" stroke-linejoin="round"/>
<path d="M28.2049 24.0918C28.6424 25.6668 29.8674 26.8918 31.4424 27.3293M18.4341 32.4335H12.6007C7.49658 32.4335 5.30908 29.5168 5.30908 25.1418V12.746C5.30908 8.37099 7.49658 5.45433 12.6007 5.45433H24.2674C29.3716 5.45433 31.5591 8.37099 31.5591 12.746V17.8502" stroke="#9A9A9A" stroke-width="1.5" stroke-miterlimit="10" stroke-linecap="round" stroke-linejoin="round"/>
<path d="M18.4266 20.3293H18.4412M13.0293 20.3293H13.0439M13.0293 24.7043H13.0439" stroke="#9A9A9A" stroke-width="2" stroke-linecap="round" stroke-linejoin="round"/>
</svg>
