<svg width="30" height="29" viewBox="0 0 30 29" fill="none" xmlns="http://www.w3.org/2000/svg">
<path d="M14.5332 15.9325C15.0283 15.9325 15.5185 15.8383 15.9759 15.6554C16.4333 15.4725 16.8489 15.2044 17.199 14.8664C17.5491 14.5284 17.8267 14.1271 18.0162 13.6855C18.2057 13.2438 18.3032 12.7705 18.3032 12.2925C18.3032 11.8145 18.2057 11.3412 18.0162 10.8995C17.8267 10.4579 17.5491 10.0566 17.199 9.71863C16.8489 9.38062 16.4333 9.1125 15.9759 8.92957C15.5185 8.74665 15.0283 8.6525 14.5332 8.6525C13.5333 8.6525 12.5744 9.03599 11.8674 9.71863C11.1604 10.4013 10.7632 11.3271 10.7632 12.2925C10.7632 13.2579 11.1604 14.1837 11.8674 14.8664C12.5744 15.549 13.5333 15.9325 14.5332 15.9325V15.9325Z" stroke="#9A9A9A" stroke-width="1.5"/>
<path d="M4.40759 10.1692C6.788 0.0658243 22.2909 0.0774912 24.6593 10.1808C26.0488 16.1075 22.2305 21.1242 18.8834 24.2275C17.7138 25.3166 16.1523 25.9252 14.5274 25.9252C12.9025 25.9252 11.3409 25.3166 10.1713 24.2275C6.83634 21.1242 3.018 16.0958 4.40759 10.1692V10.1692Z" stroke="#9A9A9A" stroke-width="1.5"/>
</svg>
