<svg width="32" height="32" viewBox="0 0 32 32" fill="none" xmlns="http://www.w3.org/2000/svg">
<path d="M21.2293 5.43083C23.7351 5.43083 25.7501 7.45874 25.7501 9.95166C25.7501 12.3929 23.8126 14.3821 21.3972 14.4725C21.2856 14.4596 21.173 14.4596 21.0614 14.4725M23.7222 26.0975C24.6522 25.9037 25.5306 25.5292 26.2539 24.9737C28.2689 23.4625 28.2689 20.9696 26.2539 19.4583C25.5435 18.9158 24.6781 18.5542 23.761 18.3475M11.8647 14.3046C11.7356 14.2917 11.5806 14.2917 11.4385 14.3046C9.9559 14.2542 8.55113 13.6288 7.52166 12.5608C6.49218 11.4927 5.91884 10.0659 5.92305 8.58249C5.92305 5.41791 8.48055 2.84749 11.6581 2.84749C13.1774 2.82009 14.6453 3.39735 15.739 4.45228C16.8327 5.50721 17.4625 6.9534 17.4899 8.4727C17.5173 9.99201 16.9401 11.46 15.8851 12.5537C14.8302 13.6473 13.384 14.2772 11.8647 14.3046ZM5.40639 19.0708C2.28055 21.1633 2.28055 24.5733 5.40639 26.6529C8.95847 29.0296 14.7839 29.0296 18.336 26.6529C21.4618 24.5604 21.4618 21.1504 18.336 19.0708C14.7968 16.7071 8.97139 16.7071 5.40639 19.0708V19.0708Z" stroke="#9A9A9A" stroke-width="1.5" stroke-linecap="round" stroke-linejoin="round"/>
</svg>
