<svg width="43" height="42" viewBox="0 0 43 42" fill="none" xmlns="http://www.w3.org/2000/svg">
<path d="M16.8875 18.8499C16.714 18.8329 16.5057 18.8329 16.3148 18.8499C14.3228 18.7837 12.4354 17.9613 11.0522 16.5568C9.66901 15.1523 8.89867 13.2761 8.90433 11.3254C8.90433 7.16392 12.3406 3.78381 16.6098 3.78381C18.6511 3.74777 20.6235 4.50687 22.093 5.89411C23.5624 7.28135 24.4087 9.18309 24.4455 11.181C24.4823 13.1789 23.7067 15.1093 22.2893 16.5475C20.8719 17.9857 18.9288 18.8139 16.8875 18.8499V18.8499Z" stroke="black" stroke-width="1.5" stroke-linecap="round" stroke-linejoin="round"/>
<path opacity="0.4" d="M29.4732 7.18091C32.84 7.18091 35.5473 9.84763 35.5473 13.1258C35.5473 16.3361 32.9441 18.9518 29.6988 19.0707C29.5489 19.0537 29.3975 19.0537 29.2476 19.0707" stroke="black" stroke-width="1.5" stroke-linecap="round" stroke-linejoin="round"/>
<path d="M8.20994 25.1176C4.0101 27.8692 4.0101 32.3534 8.20994 35.088C12.9825 38.2134 20.8095 38.2134 25.582 35.088C29.7819 32.3364 29.7819 27.8522 25.582 25.1176C20.8268 22.0092 12.9998 22.0092 8.20994 25.1176V25.1176Z" stroke="black" stroke-width="1.5" stroke-linecap="round" stroke-linejoin="round"/>
<path opacity="0.4" d="M32.8208 34.3577C34.0703 34.1029 35.2505 33.6103 36.2223 32.8799C38.9297 30.8926 38.9297 27.6144 36.2223 25.6271C35.2678 24.9137 34.1051 24.4381 32.8729 24.1664" stroke="black" stroke-width="1.5" stroke-linecap="round" stroke-linejoin="round"/>
</svg>
