<svg width="37" height="38" viewBox="0 0 37 38" fill="none" xmlns="http://www.w3.org/2000/svg">
<path d="M18.4778 18.7693C20.4854 18.7693 22.4108 17.9523 23.8303 16.4981C25.2499 15.0439 26.0474 13.0716 26.0474 11.0151C26.0474 8.9585 25.2499 6.98618 23.8303 5.53198C22.4108 4.07778 20.4854 3.26081 18.4778 3.26081C16.4702 3.26081 14.5449 4.07778 13.1253 5.53198C11.7057 6.98618 10.9082 8.9585 10.9082 11.0151C10.9082 13.0716 11.7057 15.0439 13.1253 16.4981C14.5449 17.9523 16.4702 18.7693 18.4778 18.7693V18.7693Z" stroke="black" stroke-width="1.5" stroke-linecap="round" stroke-linejoin="round"/>
<path opacity="0.4" d="M31.4823 34.2778C31.4823 28.276 25.6537 23.4218 18.4777 23.4218C11.3017 23.4218 5.47314 28.276 5.47314 34.2778" stroke="black" stroke-width="1.5" stroke-linecap="round" stroke-linejoin="round"/>
</svg>
