<svg width="32" height="24" viewBox="0 0 32 24" fill="none" xmlns="http://www.w3.org/2000/svg">
<g clip-path="url(#clip0_207_1308)">
<path d="M31.8258 9.07736C31.6312 8.32304 31.0822 7.71801 30.3622 7.46394C30.3562 7.46394 30.3562 7.46394 30.3499 7.45776L27.1022 6.36311C25.9363 5.97063 24.6855 5.92664 23.4962 6.23657L21.3474 6.79958L12.5672 2.81991C11.9627 2.54828 11.2871 2.49045 10.647 2.6553L8.72036 3.16147C8.28235 3.27665 7.94371 3.63329 7.84362 4.08534C7.74328 4.53664 7.90102 5.00747 8.25124 5.3001L12.6907 9.06475L7.60894 10.3935C7.01922 10.5457 6.39501 10.3675 5.96664 9.92534L3.86102 7.73605C3.56218 7.42563 3.12538 7.30057 2.71269 7.40709L1.36032 7.76126C1.20161 7.80229 1.06582 7.90733 0.983814 8.05241C0.90012 8.19724 0.875759 8.37 0.915797 8.53337L2.2496 13.8924C2.533 15.0246 3.42687 15.8889 4.54649 16.1131L8.51052 16.904C8.91524 16.9853 9.32672 17.0256 9.73916 17.0244C10.2763 17.0236 10.8113 16.9556 11.3323 16.8219L14.4381 16.012L12.3325 21.9215C12.1972 22.2981 12.25 22.7185 12.4741 23.0478C12.6979 23.3767 13.0647 23.573 13.4564 23.573C13.5563 23.5727 13.6559 23.5601 13.7526 23.5349L15.6916 23.0287C16.3537 22.8572 16.9366 22.4543 17.3402 21.8898L23.1814 13.7278L30.2079 11.8929C30.7862 11.7469 31.2824 11.3682 31.5848 10.8428C31.8883 10.3094 31.9746 9.67547 31.8258 9.07736V9.07736ZM9.09083 4.36363L10.9495 3.87649C11.3221 3.78084 11.715 3.81421 12.0672 3.9714L19.4149 7.29958L14.1726 8.6787L9.09083 4.36363ZM16.3399 21.1244C16.1052 21.4524 15.7671 21.6872 15.3829 21.7888L13.5057 22.2759L15.8829 15.6198L21.2919 14.2023L16.3399 21.1244ZM30.5229 10.1784C30.3847 10.415 30.1604 10.5857 29.8991 10.653L11.0235 15.5881C10.2782 15.7817 9.50038 15.8054 8.7452 15.6576L4.78118 14.8667C4.12971 14.7382 3.60994 14.235 3.44737 13.5761L2.26793 8.8307L3.00285 8.64088L5.0899 10.8111C5.82796 11.5716 6.90175 11.8791 7.91766 11.6208L23.8049 7.46394C24.766 7.21233 25.7771 7.24743 26.7192 7.56527L29.9609 8.65991C30.287 8.7783 30.5359 9.05215 30.6278 9.39372C30.6968 9.65916 30.6589 9.94166 30.5229 10.1784V10.1784Z" fill="#9A9A9A"/>
</g>
<defs>
<clipPath id="clip0_207_1308">
<rect width="31" height="23" fill="white" transform="translate(0.934082 0.565399)"/>
</clipPath>
</defs>
</svg>
