<svg width="32" height="32" viewBox="0 0 32 32" fill="none" xmlns="http://www.w3.org/2000/svg">
<g clip-path="url(#clip0_207_1676)">
<path d="M10.2136 26.9154V30.0154C10.2111 30.8704 9.51858 31.5629 8.66361 31.5654H6.08027C5.2253 31.5629 4.5328 30.8704 4.53027 30.0154V26.9154C4.53027 26.6301 4.76161 26.3987 5.04694 26.3987H9.69694C9.98227 26.3987 10.2136 26.6301 10.2136 26.9154Z" fill="white"/>
<path d="M28.2976 26.9154V30.0154C28.2951 30.8704 27.6026 31.5629 26.7476 31.5654H24.1643C23.3093 31.5629 22.6168 30.8704 22.6143 30.0154V26.9154C22.6143 26.6301 22.8456 26.3987 23.1309 26.3987H27.7809C28.0663 26.3987 28.2976 26.6301 28.2976 26.9154Z" fill="white"/>
<path d="M30.8806 18.9898V25.882C30.8781 26.737 30.1856 27.4295 29.3306 27.432H3.49727C2.6423 27.4295 1.94979 26.737 1.94727 25.882V18.9898C1.94576 18.3041 2.21721 17.6459 2.70159 17.1608L4.53061 15.3368V5.21538C4.53464 2.64895 6.61417 0.56942 9.1806 0.565384H23.6473C26.2137 0.56942 28.2932 2.64895 28.2973 5.21538V15.3368L30.1263 17.1608C30.6107 17.6459 30.8821 18.3041 30.8806 18.9898Z" fill="white"/>
<path d="M25.7143 8.64965V13.6645C25.6832 14.446 25.0278 15.0565 24.246 15.0321H8.58252C7.80071 15.0565 7.14529 14.446 7.11426 13.6645V8.64965C7.14529 7.8681 7.80071 7.25758 8.58252 7.28205H24.246C25.0278 7.25758 25.6832 7.8681 25.7143 8.64965Z" fill="white"/>
<path d="M10.2145 21.2321C10.2145 22.6587 9.05782 23.8154 7.63119 23.8154C6.20455 23.8154 5.04785 22.6587 5.04785 21.2321C5.04785 19.8054 6.20455 18.6487 7.63119 18.6487C9.05782 18.6487 10.2145 19.8054 10.2145 21.2321Z" fill="white"/>
<path d="M27.7809 21.2321C27.7809 22.6587 26.6242 23.8154 25.1976 23.8154C23.771 23.8154 22.6143 22.6587 22.6143 21.2321C22.6143 19.8054 23.771 18.6487 25.1976 18.6487C26.6242 18.6487 27.7809 19.8054 27.7809 21.2321Z" fill="white"/>
<path d="M22.6139 3.83743V4.52666C22.6139 4.90533 22.1845 5.21538 21.66 5.21538H11.1677C10.6432 5.21538 10.2139 4.90533 10.2139 4.52666V3.83743C10.2139 3.45876 10.6432 3.14871 11.1677 3.14871H21.66C22.1845 3.14871 22.6139 3.45876 22.6139 3.83743Z" fill="white"/>
<path d="M30.3645 8.57372V11.1571C30.3764 11.8551 29.8226 12.4321 29.1246 12.4487H28.2979V7.28205H29.1246C29.8226 7.2987 30.3764 7.87566 30.3645 8.57372Z" fill="white"/>
<path d="M2.46405 8.57372V11.1571C2.4522 11.8551 3.00595 12.4321 3.704 12.4487H4.53072V7.28205H3.704C3.00595 7.2987 2.4522 7.87566 2.46405 8.57372Z" fill="white"/>
<path d="M8.14766 15.5487H24.681C25.537 15.5487 26.231 14.8547 26.231 13.9987V8.31538C26.231 7.4594 25.537 6.76538 24.681 6.76538H8.14766C7.29167 6.76538 6.59766 7.4594 6.59766 8.31538V13.9987C6.59766 14.8547 7.29167 15.5487 8.14766 15.5487ZM7.63099 8.31538C7.63099 8.03005 7.86233 7.79871 8.14766 7.79871H24.681C24.9663 7.79871 25.1977 8.03005 25.1977 8.31538V13.9987C25.1977 14.284 24.9663 14.5154 24.681 14.5154H8.14766C7.86233 14.5154 7.63099 14.284 7.63099 13.9987V8.31538Z" fill="#9A9A9A"/>
<path d="M7.63027 18.132C5.91831 18.132 4.53027 19.5201 4.53027 21.232C4.53027 22.944 5.91831 24.332 7.63027 24.332C9.34249 24.332 10.7303 22.944 10.7303 21.232C10.7285 19.5206 9.34173 18.1338 7.63027 18.132ZM7.63027 23.2987C6.48897 23.2987 5.56361 22.3734 5.56361 21.232C5.56361 20.0907 6.48897 19.1654 7.63027 19.1654C8.77158 19.1654 9.69694 20.0907 9.69694 21.232C9.69694 22.3734 8.77158 23.2987 7.63027 23.2987Z" fill="#9A9A9A"/>
<path d="M25.1977 18.132C23.4857 18.132 22.0977 19.5201 22.0977 21.232C22.0977 22.944 23.4857 24.332 25.1977 24.332C26.9099 24.332 28.2977 22.944 28.2977 21.232C28.2959 19.5206 26.9091 18.1338 25.1977 18.132ZM25.1977 23.2987C24.0563 23.2987 23.131 22.3734 23.131 21.232C23.131 20.0907 24.0563 19.1654 25.1977 19.1654C26.339 19.1654 27.2643 20.0907 27.2643 21.232C27.2643 22.3734 26.339 23.2987 25.1977 23.2987Z" fill="#9A9A9A"/>
<path d="M10.7306 5.73205H22.0973C22.6679 5.73205 23.1306 5.26937 23.1306 4.69872V3.66538C23.1306 3.09473 22.6679 2.63205 22.0973 2.63205H10.7306C10.1599 2.63205 9.69727 3.09473 9.69727 3.66538V4.69872C9.69727 5.26937 10.1599 5.73205 10.7306 5.73205ZM10.7306 3.66538H22.0973V4.69872H10.7306V3.66538Z" fill="#9A9A9A"/>
<path d="M29.3306 12.9654C30.1866 12.9654 30.8806 12.2714 30.8806 11.4154V8.31538C30.8806 7.4594 30.1866 6.76538 29.3306 6.76538H28.2973V5.21538C28.2942 2.64845 26.2142 0.568411 23.6473 0.565384H9.18061C6.61368 0.568411 4.53364 2.64845 4.53061 5.21538V6.76538H3.49728C2.6413 6.76538 1.94728 7.4594 1.94728 8.31538V11.4154C1.94728 12.2714 2.6413 12.9654 3.49728 12.9654H4.53061V15.3348L2.70361 17.1618C2.21772 17.6452 1.94526 18.3028 1.94728 18.9883V25.882C1.94728 26.738 2.6413 27.432 3.49728 27.432H4.53061V30.0154C4.53061 30.8714 5.22463 31.5654 6.08061 31.5654H8.66394C9.51992 31.5654 10.2139 30.8714 10.2139 30.0154V27.432H22.6139V30.0154C22.6139 30.8714 23.308 31.5654 24.1639 31.5654H26.7473C27.6033 31.5654 28.2973 30.8714 28.2973 30.0154V27.432H29.3306C30.1866 27.432 30.8806 26.738 30.8806 25.882V18.9883C30.8826 18.3028 30.6102 17.6452 30.1243 17.1618L28.2973 15.3348V12.9654H29.3306ZM29.3306 7.79872C29.6159 7.79872 29.8473 8.03006 29.8473 8.31538V11.4154C29.8473 11.7007 29.6159 11.9321 29.3306 11.9321H28.2973V7.79872H29.3306ZM3.49728 11.9321C3.21195 11.9321 2.98061 11.7007 2.98061 11.4154V8.31538C2.98061 8.03006 3.21195 7.79872 3.49728 7.79872H4.53061V11.9321H3.49728ZM9.18061 30.0154C9.18061 30.3007 8.94927 30.532 8.66394 30.532H6.08061C5.79528 30.532 5.56394 30.3007 5.56394 30.0154V27.432H9.18061V30.0154ZM27.2639 30.0154C27.2639 30.3007 27.0326 30.532 26.7473 30.532H24.1639C23.8786 30.532 23.6473 30.3007 23.6473 30.0154V27.432H27.2639V30.0154ZM29.3937 17.8924C29.6833 18.1838 29.8463 18.5773 29.8473 18.9883V25.882C29.8473 26.1674 29.6159 26.3987 29.3306 26.3987H3.49728C3.21195 26.3987 2.98061 26.1674 2.98061 25.882V18.9883C2.98162 18.5773 3.14459 18.1838 3.43421 17.8924L5.41258 15.914C5.50945 15.8171 5.56394 15.6857 5.56394 15.5487V5.21538C5.56621 3.21885 7.18408 1.60099 9.18061 1.59872H23.6473C25.6438 1.60099 27.2617 3.21885 27.2639 5.21538V15.5487C27.2639 15.6857 27.3184 15.8171 27.4153 15.914L29.3937 17.8924Z" fill="#9A9A9A"/>
<path d="M20.0303 21.7487C20.3156 21.7487 20.5469 21.5174 20.5469 21.2321C20.5469 20.9467 20.3156 20.7154 20.0303 20.7154H12.7969C12.5116 20.7154 12.2803 20.9467 12.2803 21.2321C12.2803 21.5174 12.5116 21.7487 12.7969 21.7487H20.0303Z" fill="#9A9A9A"/>
<path d="M20.547 22.7821H12.2803C11.995 22.7821 11.7637 23.0134 11.7637 23.2987C11.7637 23.584 11.995 23.8154 12.2803 23.8154H20.547C20.8323 23.8154 21.0637 23.584 21.0637 23.2987C21.0637 23.0134 20.8323 22.7821 20.547 22.7821Z" fill="#9A9A9A"/>
<path d="M20.547 18.6487H12.2803C11.995 18.6487 11.7637 18.8801 11.7637 19.1654C11.7637 19.4507 11.995 19.6821 12.2803 19.6821H20.547C20.8323 19.6821 21.0637 19.4507 21.0637 19.1654C21.0637 18.8801 20.8323 18.6487 20.547 18.6487Z" fill="#9A9A9A"/>
</g>
<defs>
<clipPath id="clip0_207_1676">
<rect width="31" height="31" fill="white" transform="translate(0.914062 0.565384)"/>
</clipPath>
</defs>
</svg>
